<svg xmlns="http://www.w3.org/2000/svg" height="24px" viewBox="0 -960 960 960" width="24px" fill="#1D4ED8"><path d="M314.35-485.65v80q0 68.26 48.69 116.95Q411.74-240 480-240q68.83 0 117.24-48.7 48.41-48.69 48.41-116.95v-80h-331.3ZM480-311.3q-39.17 0-66.76-27.59-27.59-27.59-27.59-66.76v-8.7h188.7v8.7q0 39.17-27.31 66.76-27.3 27.59-67.04 27.59ZM268.54-647.13q-31.19 27.22-44.32 79.74l68.74 16.83q6-26 18.87-39.24 12.87-13.24 28.17-13.24 15.3 0 28.17 13.24 12.87 13.24 18.87 39.24l68.74-16.83q-13.13-52.52-44.32-79.74-31.2-27.22-71.46-27.22-40.26 0-71.46 27.22Zm280 0q-31.19 27.22-44.32 79.74l68.74 16.83q6-26 18.87-39.24 12.87-13.24 28.17-13.24 15.3 0 28.17 13.24 12.87 13.24 18.87 39.24l68.74-16.83q-13.13-52.52-44.32-79.74-31.2-27.22-71.46-27.22-40.26 0-71.46 27.22ZM316.65-93.69q-76.39-32.92-133.22-89.74-56.82-56.83-89.74-133.22Q60.78-393.04 60.78-480t32.91-163.35q32.92-76.39 89.74-133.22 56.83-56.82 133.22-89.74 76.39-32.91 163.35-32.91t163.35 32.91q76.39 32.92 133.22 89.74 56.82 56.83 89.74 133.22 32.91 76.39 32.91 163.35t-32.91 163.35q-32.92 76.39-89.74 133.22-56.83 56.82-133.22 89.74Q566.96-60.78 480-60.78T316.65-93.69Z"/></svg>