<svg xmlns="http://www.w3.org/2000/svg" height="24px" viewBox="0 -960 960 960" width="24px" fill="#15803D"><path d="M615.48-515.48q27.26 0 45.89-18.63T680-580q0-27.26-18.63-45.89t-45.89-18.63q-26.7 0-45.33 18.91T551.52-580q0 26.7 18.63 45.61t45.33 18.91Zm-270.96 0q26.7 0 45.33-18.91T408.48-580q0-26.7-18.63-45.61t-45.33-18.91q-27.26 0-45.89 18.63T280-580q0 27.26 18.63 45.89t45.89 18.63ZM603.5-298.5Q659-337 684-400h-76.17q-20.87 33.61-54.83 52.56-33.96 18.96-73 18.96t-73-18.96q-33.96-18.95-54.83-52.56H276q25 63 80.5 101.5T480-260q68 0 123.5-38.5ZM316.65-93.69q-76.39-32.92-133.22-89.74-56.82-56.83-89.74-133.22Q60.78-393.04 60.78-480t32.91-163.35q32.92-76.39 89.74-133.22 56.83-56.82 133.22-89.74 76.39-32.91 163.35-32.91t163.35 32.91q76.39 32.92 133.22 89.74 56.82 56.83 89.74 133.22 32.91 76.39 32.91 163.35t-32.91 163.35q-32.92 76.39-89.74 133.22-56.83 56.82-133.22 89.74Q566.96-60.78 480-60.78T316.65-93.69Z"/></svg>