<svg xmlns="http://www.w3.org/2000/svg" height="24px" viewBox="0 -960 960 960" width="24px" fill="#C2410C"><path d="M316.65-93.69q-76.39-32.92-133.22-89.74-56.82-56.83-89.74-133.22Q60.78-393.04 60.78-480t32.91-163.35q32.92-76.39 89.74-133.22 56.83-56.82 133.22-89.74 76.39-32.91 163.35-32.91t163.35 32.91q76.39 32.92 133.22 89.74 56.82 56.83 89.74 133.22 32.91 76.39 32.91 163.35t-32.91 163.35q-32.92 76.39-89.74 133.22-56.83 56.82-133.22 89.74Q566.96-60.78 480-60.78T316.65-93.69Zm-20.35-354.4L450.61-560 296.3-671.91l-42.21 57.61 75.3 54.3-75.3 54.3 42.21 57.61ZM420-269.52l60-60 60 60 60-60 39 38.43L688.91-341 600-430.48l-60 60-60-60-60 60-60-60L271.09-341 321-291.09l39-38.43 60 60Zm243.7-178.57 42.21-57.61-75.3-54.3 75.3-54.3-42.21-57.61L509.39-560 663.7-448.09Z"/></svg>