<svg xmlns="http://www.w3.org/2000/svg" height="24px" viewBox="0 -960 960 960" width="24px" fill="#B91C1C"><path d="M356.5-381.5Q301-343 276-280h408q-25-63-80.5-101.5T480-420q-68 0-123.5 38.5ZM312-480l44-42 42 42 42-42-42-42 42-44-42-42-42 42-44-42-42 42 42 44-42 42 42 42Zm250 0 42-42 44 42 42-42-42-42 42-44-42-42-44 42-42-42-42 42 42 44-42 42 42 42ZM316.65-93.69q-76.39-32.92-133.22-89.74-56.82-56.83-89.74-133.22Q60.78-393.04 60.78-480t32.91-163.35q32.92-76.39 89.74-133.22 56.83-56.82 133.22-89.74 76.39-32.91 163.35-32.91t163.35 32.91q76.39 32.92 133.22 89.74 56.82 56.83 89.74 133.22 32.91 76.39 32.91 163.35t-32.91 163.35q-32.92 76.39-89.74 133.22-56.83 56.82-133.22 89.74Q566.96-60.78 480-60.78T316.65-93.69Z"/></svg>